<?xml version="1.0" encoding="UTF-8" standalone="no"?>
<!-- Created with Inkscape (http://www.inkscape.org/) -->

<svg
   xmlns:dc="http://purl.org/dc/elements/1.1/"
   xmlns:cc="http://creativecommons.org/ns#"
   xmlns:rdf="http://www.w3.org/1999/02/22-rdf-syntax-ns#"
   xmlns:svg="http://www.w3.org/2000/svg"
   xmlns="http://www.w3.org/2000/svg"
   xmlns:sodipodi="http://sodipodi.sourceforge.net/DTD/sodipodi-0.dtd"
   xmlns:inkscape="http://www.inkscape.org/namespaces/inkscape"
   version="1.0"
   width="474.70944"
   height="388.3313"
   id="svg2"
   inkscape:version="0.48.4 r9939"
   sodipodi:docname="Carbon-phase-diagramp_de-ger.svg">
  <metadata
     id="metadata68">
    <rdf:RDF>
      <cc:Work
         rdf:about="">
        <dc:format>image/svg+xml</dc:format>
        <dc:type
           rdf:resource="http://purl.org/dc/dcmitype/StillImage" />
      </cc:Work>
    </rdf:RDF>
  </metadata>
  <sodipodi:namedview
     pagecolor="#ffffff"
     bordercolor="#666666"
     borderopacity="1"
     objecttolerance="10"
     gridtolerance="10"
     guidetolerance="10"
     inkscape:pageopacity="0"
     inkscape:pageshadow="2"
     inkscape:window-width="1280"
     inkscape:window-height="940"
     id="namedview66"
     showgrid="false"
     inkscape:zoom="2.3657963"
     inkscape:cx="208.4253"
     inkscape:cy="232.42952"
     inkscape:window-x="-8"
     inkscape:window-y="-8"
     inkscape:window-maximized="1"
     inkscape:current-layer="svg2"
     fit-margin-top="5"
     fit-margin-left="5"
     fit-margin-right="5"
     fit-margin-bottom="5" />
  <defs
     id="defs4" />
  <path
     d="m 279.61775,334.26632 -180.930004,0 0,-325.2999968 361.070004,0 0,325.2999968 -180.14,0"
     id="3"
     style="fill:none;stroke:#b3b3b3;stroke-width:0.85723001px;stroke-linecap:round;stroke-linejoin:round;stroke-opacity:1;stroke-dasharray:none"
     inkscape:connector-curvature="0" />
  <path
     d="m 98.727746,334.22632 0,5.62 0,-5.62"
     id="4"
     style="fill:none;stroke:#b3b3b3;stroke-width:0.93799001px;stroke-linecap:round;stroke-linejoin:round;stroke-opacity:1;stroke-dasharray:none"
     inkscape:connector-curvature="0" />
  <path
     d="m 170.95775,334.22632 0,5.62 0,-5.62"
     id="5"
     style="fill:none;stroke:#b3b3b3;stroke-width:0.93799001px;stroke-linecap:round;stroke-linejoin:round;stroke-opacity:1;stroke-dasharray:none"
     inkscape:connector-curvature="0" />
  <path
     d="m 243.17775,334.22632 0,5.62 0,-5.62"
     id="6"
     style="fill:none;stroke:#b3b3b3;stroke-width:0.93799001px;stroke-linecap:round;stroke-linejoin:round;stroke-opacity:1;stroke-dasharray:none"
     inkscape:connector-curvature="0" />
  <path
     d="m 315.40775,334.22632 0,5.62 0,-5.62"
     id="7"
     style="fill:none;stroke:#b3b3b3;stroke-width:0.93799001px;stroke-linecap:round;stroke-linejoin:round;stroke-opacity:1;stroke-dasharray:none"
     inkscape:connector-curvature="0" />
  <path
     d="m 387.62775,334.22632 0,5.62 0,-5.62"
     id="8"
     style="fill:none;stroke:#b3b3b3;stroke-width:0.93799001px;stroke-linecap:round;stroke-linejoin:round;stroke-opacity:1;stroke-dasharray:none"
     inkscape:connector-curvature="0" />
  <path
     d="m 459.85775,334.22632 0,5.62 0,-5.62"
     id="9"
     style="fill:none;stroke:#b3b3b3;stroke-width:0.93799001px;stroke-linecap:round;stroke-linejoin:round;stroke-opacity:1;stroke-dasharray:none"
     inkscape:connector-curvature="0" />
  <path
     d="m 459.54775,334.18632 0.25,0.15 -0.25,-0.15 -361.280004,0 -4.7,0 4.7,0"
     id="10"
     style="fill:none;stroke:#b3b3b3;stroke-width:0.86306px;stroke-linecap:round;stroke-linejoin:round;stroke-opacity:1;stroke-dasharray:none"
     inkscape:connector-curvature="0" />
  <path
     d="m 98.727746,279.86632 -5.63,0 5.63,0"
     id="11"
     style="fill:none;stroke:#b3b3b3;stroke-width:0.93799001px;stroke-linecap:round;stroke-linejoin:round;stroke-opacity:1;stroke-dasharray:none"
     inkscape:connector-curvature="0" />
  <path
     d="m 98.727746,225.50632 -5.63,0 5.63,0"
     id="12"
     style="fill:none;stroke:#b3b3b3;stroke-width:0.93799001px;stroke-linecap:round;stroke-linejoin:round;stroke-opacity:1;stroke-dasharray:none"
     inkscape:connector-curvature="0" />
  <path
     d="m 98.727746,172.08632 -5.63,0 5.63,0"
     id="13"
     style="fill:none;stroke:#b3b3b3;stroke-width:0.93799001px;stroke-linecap:round;stroke-linejoin:round;stroke-opacity:1;stroke-dasharray:none"
     inkscape:connector-curvature="0" />
  <path
     d="m 98.727746,117.72632 -5.63,0 5.63,0"
     id="14"
     style="fill:none;stroke:#b3b3b3;stroke-width:0.93799001px;stroke-linecap:round;stroke-linejoin:round;stroke-opacity:1;stroke-dasharray:none"
     inkscape:connector-curvature="0" />
  <path
     d="m 98.727746,63.366323 -5.63,0 5.63,0"
     id="15"
     style="fill:none;stroke:#b3b3b3;stroke-width:0.93799001px;stroke-linecap:round;stroke-linejoin:round;stroke-opacity:1;stroke-dasharray:none"
     inkscape:connector-curvature="0" />
  <path
     d="m 98.727746,334.22632 0,-325.2199968 -5.63,0 5.63,0"
     id="16"
     style="fill:none;stroke:#b3b3b3;stroke-width:0.93799001px;stroke-linecap:round;stroke-linejoin:round;stroke-opacity:1;stroke-dasharray:none"
     inkscape:connector-curvature="0" />
  <text
     x="94.358093"
     y="357.65778"
     id="21"
     xml:space="preserve"
     style="font-size:16px;font-style:normal;font-weight:normal;text-align:start;text-anchor:start;fill:#000000;font-family:Arial">0</text>
  <text
     x="166.58334"
     y="357.65778"
     id="22"
     xml:space="preserve"
     style="font-size:16px;font-style:normal;font-weight:normal;text-align:start;text-anchor:start;fill:#000000;font-family:Arial">2</text>
  <text
     x="238.80858"
     y="357.65778"
     id="23"
     xml:space="preserve"
     style="font-size:16px;font-style:normal;font-weight:normal;text-align:start;text-anchor:start;fill:#000000;font-family:Arial">4</text>
  <text
     x="311.03387"
     y="357.65778"
     id="24"
     xml:space="preserve"
     style="font-size:16px;font-style:normal;font-weight:normal;text-align:start;text-anchor:start;fill:#000000;font-family:Arial">6</text>
  <text
     x="383.25912"
     y="357.65778"
     id="25"
     xml:space="preserve"
     style="font-size:16px;font-style:normal;font-weight:normal;text-align:start;text-anchor:start;fill:#000000;font-family:Arial">8</text>
  <text
     x="452.67038"
     y="357.65778"
     id="26"
     xml:space="preserve"
     style="font-size:16px;font-style:normal;font-weight:normal;text-align:start;text-anchor:start;fill:#000000;font-family:Arial">10</text>
  <text
     x="51.586971"
     y="342.66193"
     id="28"
     xml:space="preserve"
     style="font-size:16px;font-style:normal;font-weight:normal;text-align:start;text-anchor:start;fill:#000000;font-family:Arial">0,001</text>
  <text
     x="51.586685"
     y="288.30182"
     id="29"
     xml:space="preserve"
     style="font-size:16px;font-style:normal;font-weight:normal;text-align:start;text-anchor:start;fill:#000000;font-family:Arial">0,01</text>
  <text
     x="51.586685"
     y="233.94171"
     id="30"
     xml:space="preserve"
     style="font-size:16px;font-style:normal;font-weight:normal;text-align:start;text-anchor:start;fill:#000000;font-family:Arial">0,1</text>
  <text
     x="50.50856"
     y="179.58167"
     id="31"
     xml:space="preserve"
     style="font-size:16px;font-style:normal;font-weight:normal;text-align:start;text-anchor:start;fill:#000000;font-family:Arial">1</text>
  <text
     x="39.430561"
     y="125.22159"
     id="32"
     xml:space="preserve"
     style="font-size:16px;font-style:normal;font-weight:normal;text-align:start;text-anchor:start;fill:#000000;font-family:Arial">10</text>
  <text
     x="30.524559"
     y="70.861473"
     id="33"
     xml:space="preserve"
     style="font-size:16px;font-style:normal;font-weight:normal;text-align:start;text-anchor:start;fill:#000000;font-family:Arial">100</text>
  <text
     x="245.37453"
     y="380.15161"
     id="35"
     xml:space="preserve"
     style="font-size:16px;font-style:normal;font-weight:normal;text-align:start;text-anchor:start;fill:#000000;font-family:Arial">Temperatur in 1000 K</text>
  <text
     x="-171.62944"
     y="16.648438"
     transform="matrix(0,-1,1,0,0,0)"
     id="36"
     xml:space="preserve"
     style="font-size:16px;font-style:normal;font-weight:normal;text-align:start;text-anchor:start;fill:#000000;font-family:Arial">Druck in GPa</text>
  <path
     d="m 241.04775,334.13632 c 0,0 5.98,-22.26 9.99,-32.72 2.69,-7 1.51,-4.59 9.51,-20.38 5.45,-10.77 10.48,-17.51 17.05,-25.26 5.7,-6.72 12.19,-12.84 19.2,-18.18 7.51,-5.72 12.22,-9.23 24.24,-14.65 12.02,-5.41 28.66,-11.24 48.49,-15.15 19.83,-3.91 55.36,-5.42 70.2,-6.06 14.85,-0.64 20.14,0.38 20.14,0.38"
     id="path2976"
     style="fill:none;stroke:#000000;stroke-width:1.70000005;stroke-linecap:butt;stroke-linejoin:miter;stroke-miterlimit:4;stroke-opacity:1;stroke-dasharray:none;display:inline"
     inkscape:connector-curvature="0" />
  <path
     d="m 260.60775,280.94632 c 0,0 3.38,-32.26 4.87,-48.4 1.29,-13.96 3.66,-27.9 3.54,-41.92 -0.1,-11.68 -2.26,-23.25 -3.54,-34.85 -1.41,-12.81 -4.54,-38.39 -4.54,-38.39"
     id="path2978"
     style="fill:none;stroke:#000000;stroke-width:1.70000005;stroke-linecap:butt;stroke-linejoin:miter;stroke-miterlimit:4;stroke-opacity:1;stroke-dasharray:none;stroke-dashoffset:0;marker:none;visibility:visible;display:inline;overflow:visible;enable-background:accumulate"
     inkscape:connector-curvature="0" />
  <path
     d="m 459.85775,37.006323 c 0,0 -15.32,0.58 -29.22,3.11 -13.9,2.52 -40.86,9.57 -55.56,14.14 -14.69,4.57 -20.02,6.36 -32.83,12.12 -12.81,5.76 -29.77,14.61 -43.43,23.23 -13.67,8.63 -38.39,28.289997 -38.39,28.289997"
     id="path2980"
     style="fill:none;stroke:#000000;stroke-width:1.70000005;stroke-linecap:butt;stroke-linejoin:miter;stroke-miterlimit:4;stroke-opacity:1;stroke-dasharray:none;stroke-dashoffset:0;marker:none;visibility:visible;display:inline;overflow:visible;enable-background:accumulate"
     inkscape:connector-curvature="0" />
  <path
     d="m 98.297746,85.066323 161.120004,32.319997 -160.049004,216.8"
     id="path3822"
     style="fill:none;stroke:#000000;stroke-width:1;stroke-linecap:butt;stroke-linejoin:miter;stroke-miterlimit:4;stroke-opacity:1;stroke-dasharray:none;stroke-dashoffset:0;display:inline"
     inkscape:connector-curvature="0" />
  <path
     d="m 264.77775,279.68632 c 0,2.13 -1.73,3.84 -3.86,3.84 -2.11,0 -3.84,-1.71 -3.84,-3.84 0,-2.13 1.73,-3.84 3.84,-3.84 2.13,0 3.86,1.71 3.86,3.84 z"
     id="path4167"
     style="fill:#000000;fill-opacity:1;stroke:#000000;stroke-width:1.90180004;stroke-linecap:butt;stroke-linejoin:miter;stroke-miterlimit:4;stroke-opacity:1;stroke-dasharray:none;stroke-dashoffset:0;marker:none;visibility:visible;display:inline;overflow:visible;enable-background:accumulate"
     inkscape:connector-curvature="0" />
  <path
     d="m 262.34775,274.74632 c -0.04,-0.65 3.82,-38.76 5.37,-52.96 2.88,-26.33 2.91,-33.84 0.23,-54.87 -1.97,-15.41 -5.63,-46.56 -5.63,-47.92 0,-1.04 0.78,-1.82 5.51,-5.49 25.13,-19.549997 38.52,-28.162997 62.16,-39.986997 15.12,-7.57 23.54,-11.111 37.06,-15.546 15.58,-5.126 40.24,-11.815 55.92,-15.179 10.8,-2.315 27.72,-4.539 34.59,-4.539 l 1.68,0 0,81.290997 0,81.3 -13.94,0.03 c -25.44,0.07 -61.54,2.98 -77.82,6.29 -21.51,4.36 -45.78,13.1 -59.81,21.53 -8.23,4.94 -20.01,14.62 -27.12,22.3 -6.75,7.27 -10.42,12.12 -17.66,23.33 -0.29,0.44 -0.53,0.63 -0.54,0.42 z"
     id="path2658"
     style="fill:#a9abf8;fill-opacity:1;fill-rule:evenodd;stroke:none;stroke-width:0.43184px;marker:none;visibility:visible;display:inline;overflow:visible;enable-background:accumulate"
     inkscape:connector-curvature="0" />
  <path
     d="m 268.00775,210.82632 43.94,16.16"
     id="path3824"
     style="fill:none;stroke:#000000;stroke-width:1;stroke-linecap:butt;stroke-linejoin:miter;stroke-miterlimit:4;stroke-opacity:1;stroke-dasharray:4, 4;stroke-dashoffset:0;marker:none;visibility:visible;display:inline;overflow:visible;enable-background:accumulate"
     inkscape:connector-curvature="0" />
  <text
     x="319.52228"
     y="181.02835"
     id="text3878"
     xml:space="preserve"
     style="font-size:18px;font-style:normal;font-variant:normal;font-weight:normal;font-stretch:normal;text-align:start;line-height:125%;writing-mode:lr-tb;text-anchor:start;fill:#000000;fill-opacity:1;stroke:none;display:inline;font-family:Arial;-inkscape-font-specification:Arial"
     sodipodi:linespacing="125%"><tspan
       x="319.52228"
       y="181.02835"
       id="tspan3880">flüssig</tspan></text>
  <text
     x="268.40634"
     y="226.78851"
     id="text4157"
     xml:space="preserve"
     style="font-size:10px;font-style:normal;font-variant:normal;font-weight:normal;font-stretch:normal;text-align:start;line-height:125%;writing-mode:lr-tb;text-anchor:start;fill:#000000;fill-opacity:1;stroke:none;font-family:Arial;-inkscape-font-specification:Arial"
     sodipodi:linespacing="125%"><tspan
       sodipodi:role="line"
       id="tspan3095"
       x="268.40634"
       y="226.78851">meta-</tspan><tspan
       sodipodi:role="line"
       id="tspan3097"
       x="268.40634"
       y="239.28851">stabil</tspan></text>
  <path
     d="m 242.94775,332.41632 c 0,-2.91 9.43,-31.29 12.73,-38.29 3.36,-7.15 4.44,-8.68 6.82,-9.68 3.18,-1.32 4.47,-4.42 2.99,-7.18 -0.78,-1.46 -0.18,-2.78 3.92,-8.5 6.39,-8.92 7.91,-10.72 15.72,-18.74 15.89,-16.3 33.33,-26.38 59.74,-34.53 16.29,-5.02 29.08,-7.56 48.36,-9.61 9.36,-0.99 47.25,-3.04 56.36,-3.05 l 9.28,-0.01 0,65.21 0,65.21 -107.96,0 c -68.43,0 -107.96,-0.3 -107.96,-0.83 z"
     id="path2660"
     style="fill:#abfcab;fill-opacity:1;fill-rule:evenodd;stroke:none;stroke-width:0.86369002px;marker:none;visibility:visible;display:inline;overflow:visible;enable-background:accumulate"
     inkscape:connector-curvature="0" />
  <text
     x="343.76593"
     y="269.41669"
     id="text3882"
     xml:space="preserve"
     style="font-size:18px;font-style:normal;font-variant:normal;font-weight:normal;font-stretch:normal;text-align:start;line-height:125%;writing-mode:lr-tb;text-anchor:start;fill:#000000;fill-opacity:1;stroke:none;display:inline;font-family:Arial;-inkscape-font-specification:Arial"
     sodipodi:linespacing="125%"><tspan
       x="343.76593"
       y="269.41669"
       id="tspan3884">gasförmig</tspan></text>
  <text
     x="267.42252"
     y="292.14508"
     id="text3886"
     xml:space="preserve"
     style="font-size:18px;font-style:normal;font-variant:normal;font-weight:normal;font-stretch:normal;text-align:start;line-height:125%;writing-mode:lr-tb;text-anchor:start;fill:#000000;fill-opacity:1;stroke:none;display:inline;font-family:Arial;-inkscape-font-specification:Arial"
     sodipodi:linespacing="125%"><tspan
       sodipodi:role="line"
       id="tspan3119"
       x="267.42252"
       y="292.14508">Tripelpunkt</tspan></text>
  <text
     x="267.69241"
     y="306.78851"
     id="text4163"
     xml:space="preserve"
     style="font-size:12px;font-style:normal;font-variant:normal;font-weight:normal;font-stretch:normal;text-align:start;line-height:125%;writing-mode:lr;text-anchor:start;fill:#000000;fill-opacity:1;stroke:none;font-family:Arial;-inkscape-font-specification:Arial"
     sodipodi:linespacing="125%"><tspan
       sodipodi:role="line"
       id="tspan3045">4600 ± 300 K; 10,8 ± 0,2 MPa</tspan></text>
  <path
     d="m 102.13575,331.76632 c 27.072,-37.19 156.912,-212.22 157.342,-212.1 0.3,0.1 1.59,8.59 2.87,18.88 1.22,10.29 2.93,24.88 3.85,32.44 2.07,17.09 1.89,28.45 -0.8,52.53 -1.04,8.9 -2.62,24.08 -3.54,33.74 -1.16,11.42 -1.95,17.56 -2.38,17.56 -0.43,0 -1.28,0.63 -2.02,1.41 -1.52,1.63 -1.83,5.37 -0.49,6.48 0.74,0.61 0.37,1.8 -2.38,7.56 -3.66,7.59 -7.94,19.75 -11.91,33.86 l -2.63,9.32 -69.57,0 -69.569,0 1.227,-1.68 z"
     id="path3432"
     style="fill:#a9a9a9;fill-opacity:1;fill-rule:evenodd;stroke:none;stroke-width:0.61071998px;marker:none;visibility:visible;display:inline;overflow:visible;enable-background:accumulate"
     inkscape:connector-curvature="0" />
  <text
     x="181.13133"
     y="263.86084"
     id="text3890"
     xml:space="preserve"
     style="font-size:18px;font-style:normal;font-variant:normal;font-weight:normal;font-stretch:normal;text-align:start;line-height:125%;writing-mode:lr-tb;text-anchor:start;fill:#000000;fill-opacity:1;stroke:none;display:inline;font-family:Arial;-inkscape-font-specification:Arial"
     sodipodi:linespacing="125%"><tspan
       x="181.13133"
       y="263.86084"
       id="tspan3892">Graphit</tspan></text>
  <path
     d="m 178.80775,100.47632 -79.231004,-15.975997 -0.006,-37.407 0,-37.4059998 179.857004,0 179.86,0 0,13.0569998 0,13.057 -5.38,0.409 c -18.44,1.411 -34.2,4.465 -61.74,12.001 -27.73,7.597 -40.55,12.3 -61.44,22.566 -24.7,12.141 -37.55,20.294 -62.71,39.778997 -4.27,3.31 -8.26,5.98 -8.86,5.95 -0.61,-0.02 -36.77,-7.24 -80.35,-16.03 z"
     id="path3434"
     style="fill:#fbfdad;fill-opacity:1;fill-rule:evenodd;stroke:none;stroke-width:0.61071998px;marker:none;visibility:visible;display:inline;overflow:visible;enable-background:accumulate"
     inkscape:connector-curvature="0" />
  <text
     x="178.66287"
     y="66.029381"
     id="text3847"
     xml:space="preserve"
     style="font-size:18px;font-style:normal;font-variant:normal;font-weight:normal;font-stretch:normal;text-align:start;line-height:125%;writing-mode:lr-tb;text-anchor:start;fill:#000000;fill-opacity:1;stroke:none;display:inline;font-family:Arial;-inkscape-font-specification:Arial"
     sodipodi:linespacing="125%"><tspan
       x="178.66287"
       y="66.029381"
       id="tspan3849">Diamant</tspan></text>
  <path
     d="m 99.586746,209.33632 c 0,-97.9 0.15,-122.884997 0.770004,-122.890997 0.91,-0.012 157.001,31.250997 157.311,31.500997 0.21,0.17 -155.601,211.58 -157.251,213.38 -0.690004,0.75 -0.830004,-19 -0.830004,-121.99 z"
     id="path3456"
     style="fill:#c8ab37;fill-opacity:1;fill-rule:evenodd;stroke:none;stroke-width:0.61071998px;marker:none;visibility:visible;display:inline;overflow:visible;enable-background:accumulate"
     inkscape:connector-curvature="0" />
  <path
     d="m 98.297746,156.27632 c 0,0 17.780004,-6.82 29.800004,-10.6 12.02,-3.78 29.03,-8.45 42.43,-11.62 13.4,-3.17 22.98,-4.92 37.88,-7.58 14.89,-2.65 52.4,-8.58 52.4,-8.58"
     id="path2982"
     style="fill:none;stroke:#000000;stroke-width:1.70000005;stroke-linecap:butt;stroke-linejoin:miter;stroke-miterlimit:4;stroke-opacity:1;stroke-dasharray:none;stroke-dashoffset:0;marker:none;visibility:visible;display:inline;overflow:visible;enable-background:accumulate"
     inkscape:connector-curvature="0" />
  <text
     x="105.43085"
     y="168.88626"
     id="text3894"
     xml:space="preserve"
     style="font-size:18px;font-style:normal;font-variant:normal;font-weight:normal;font-stretch:normal;text-align:start;line-height:125%;writing-mode:lr-tb;text-anchor:start;fill:#000000;fill-opacity:1;stroke:none;display:inline;font-family:Arial;-inkscape-font-specification:Arial"
     sodipodi:linespacing="125%"><tspan
       sodipodi:role="line"
       id="tspan3085"
       x="105.43085"
       y="168.88626">Graphit u.</tspan><tspan
       sodipodi:role="line"
       id="tspan3087"
       x="105.43085"
       y="191.38626">metastabiler</tspan><tspan
       sodipodi:role="line"
       id="tspan3089"
       x="105.43085"
       y="213.88626">Diamant</tspan></text>
  <text
     x="21.618561"
     y="16.5"
     id="33-1"
     xml:space="preserve"
     style="font-size:16px;font-style:normal;font-variant:normal;font-weight:normal;font-stretch:normal;text-align:start;line-height:125%;writing-mode:lr-tb;text-anchor:start;fill:#000000;font-family:Arial;-inkscape-font-specification:Arial"
     sodipodi:linespacing="125%"><tspan
       sodipodi:role="line"
       id="tspan3117"
       x="21.618561"
       y="16.5">1000</tspan></text>
  <text
     xml:space="preserve"
     style="font-size:11px;font-style:normal;font-variant:normal;font-weight:normal;font-stretch:normal;text-align:start;line-height:125%;letter-spacing:0px;word-spacing:0px;writing-mode:lr;text-anchor:start;fill:#000000;fill-opacity:1;stroke:none;font-family:Arial;-inkscape-font-specification:Arial"
     x="103.41505"
     y="106.77933"
     id="text3121"
     sodipodi:linespacing="125%"><tspan
       sodipodi:role="line"
       id="tspan3123"
       x="103.41505"
       y="106.77933">Diamant u.</tspan><tspan
       sodipodi:role="line"
       x="103.41505"
       y="120.52933"
       id="tspan3125">metastabiler Graphit</tspan></text>
</svg>
